Kedebideri-ExtraBold.ufo
<glyph name="asterisk" format="2">
  <advance width="444"/>
  <unicode hex="002A"/>
  <outline>
    <contour>
      <point x="75" y="408" type="line"/>
      <point x="124" y="372" type="line"/>
      <point x="222" y="506" type="line"/>
      <point x="320" y="372" type="line"/>
      <point x="369" y="408" type="line"/>
      <point x="272" y="541" type="line"/>
      <point x="428" y="591" type="line"/>
      <point x="409" y="650" type="line"/>
      <point x="253" y="600" type="line"/>
      <point x="253" y="764" type="line"/>
      <point x="191" y="764" type="line"/>
      <point x="191" y="600" type="line"/>
      <point x="35" y="650" type="line"/>
      <point x="16" y="591" type="line"/>
      <point x="172" y="541" type="line"/>
    </contour>
  </outline>
</glyph>
<glyph name="B" format="2">
  <advance width="603"/>
  <unicode hex="0042"/>
  <anchor x="293" y="702" name="aboveUC"/>
  <outline>
    <contour>
      <point x="95" y="0" type="line"/>
      <point x="304" y="0" type="line" smooth="yes"/>
      <point x="457" y="0"/>
      <point x="560" y="66"/>
      <point x="560" y="198" type="curve" smooth="yes"/>
      <point x="560" y="291"/>
      <point x="502" y="346"/>
      <point x="418" y="361" type="curve"/>
      <point x="418" y="365" type="line"/>
      <point x="483" y="386"/>
      <point x="519" y="444"/>
      <point x="519" y="513" type="curve" smooth="yes"/>
      <point x="519" y="630"/>
      <point x="427" y="679"/>
      <point x="290" y="679" type="curve" smooth="yes"/>
      <point x="95" y="679" type="line"/>
    </contour>
    <contour>
      <point x="166" y="386" type="line"/>
      <point x="166" y="622" type="line"/>
      <point x="278" y="622" type="line" smooth="yes"/>
      <point x="391" y="622"/>
      <point x="450" y="590"/>
      <point x="450" y="504" type="curve" smooth="yes"/>
      <point x="450" y="431"/>
      <point x="398" y="386"/>
      <point x="273" y="386" type="curve" smooth="yes"/>
    </contour>
    <contour>
      <point x="166" y="56" type="line"/>
      <point x="166" y="330" type="line"/>
      <point x="292" y="330" type="line" smooth="yes"/>
      <point x="419" y="330"/>
      <point x="490" y="289"/>
      <point x="490" y="200" type="curve" smooth="yes"/>
      <point x="490" y="101"/>
      <point x="416" y="56"/>
      <point x="292" y="56" type="curve" smooth="yes"/>
    </contour>
  </outline>
</glyph>
<glyph name="C" format="2">
  <advance width="587"/>
  <unicode hex="0043"/>
  <anchor x="336" y="702" name="aboveUC"/>
  <anchor x="353" y="0" name="baseLC"/>
  <outline>
    <contour>
      <point x="345" y="-12" type="curve" smooth="yes"/>
      <point x="434" y="-12"/>
      <point x="498" y="23"/>
      <point x="551" y="85" type="curve"/>
      <point x="512" y="129" type="line"/>
      <point x="466" y="78"/>
      <point x="416" y="50"/>
      <point x="349" y="50" type="curve" smooth="yes"/>
      <point x="213" y="50"/>
      <point x="128" y="163"/>
      <point x="128" y="341" type="curve" smooth="yes"/>
      <point x="128" y="518"/>
      <point x="216" y="628"/>
      <point x="352" y="628" type="curve" smooth="yes"/>
      <point x="411" y="628"/>
      <point x="458" y="602"/>
      <point x="494" y="562" type="curve"/>
      <point x="534" y="608" type="line"/>
      <point x="495" y="651"/>
      <point x="432" y="691"/>
      <point x="351" y="691" type="curve" smooth="yes"/>
      <point x="179" y="691"/>
      <point x="54" y="557"/>
      <point x="54" y="339" type="curve" smooth="yes"/>
      <point x="54" y="121"/>
      <point x="177" y="-12"/>
    </contour>
  </outline>
</glyph>
<glyph name="H" format="2">
  <advance width="668"/>
  <unicode hex="0048"/>
  <anchor x="333" y="702" name="aboveUC"/>
  <outline>
    <contour>
      <point x="95" y="0" type="line"/>
      <point x="166" y="0" type="line"/>
      <point x="166" y="327" type="line"/>
      <point x="501" y="327" type="line"/>
      <point x="501" y="0" type="line"/>
      <point x="572" y="0" type="line"/>
      <point x="572" y="679" type="line"/>
      <point x="501" y="679" type="line"/>
      <point x="501" y="389" type="line"/>
      <point x="166" y="389" type="line"/>
      <point x="166" y="679" type="line"/>
      <point x="95" y="679" type="line"/>
    </contour>
  </outline>
</glyph>
<glyph name="X" format="2">
  <advance width="517"/>
  <unicode hex="0058"/>
  <anchor x="259" y="702" name="aboveUC"/>
  <outline>
    <contour>
      <point x="16" y="0" type="line"/>
      <point x="90" y="0" type="line"/>
      <point x="196" y="193" type="line" smooth="yes"/>
      <point x="214" y="226"/>
      <point x="231" y="260"/>
      <point x="252" y="301" type="curve"/>
      <point x="256" y="301" type="line"/>
      <point x="278" y="260"/>
      <point x="298" y="226"/>
      <point x="316" y="193" type="curve" smooth="yes"/>
      <point x="423" y="0" type="line"/>
      <point x="501" y="0" type="line"/>
      <point x="300" y="347" type="line"/>
      <point x="487" y="679" type="line"/>
      <point x="413" y="679" type="line"/>
      <point x="314" y="494" type="line" smooth="yes"/>
      <point x="297" y="463"/>
      <point x="284" y="437"/>
      <point x="265" y="398" type="curve"/>
      <point x="261" y="398" type="line"/>
      <point x="239" y="437"/>
      <point x="225" y="463"/>
      <point x="208" y="494" type="curve" smooth="yes"/>
      <point x="107" y="679" type="line"/>
      <point x="29" y="679" type="line"/>
      <point x="216" y="351" type="line"/>
    </contour>
  </outline>
</glyph>
<glyph name="Z" format="2">
  <advance width="557"/>
  <unicode hex="005A"/>
  <anchor x="288" y="702" name="aboveUC"/>
  <outline>
    <contour>
      <point x="48" y="0" type="line"/>
      <point x="510" y="0" type="line"/>
      <point x="510" y="60" type="line"/>
      <point x="136" y="60" type="line"/>
      <point x="507" y="637" type="line"/>
      <point x="507" y="679" type="line"/>
      <point x="81" y="679" type="line"/>
      <point x="81" y="619" type="line"/>
      <point x="419" y="619" type="line"/>
      <point x="48" y="41" type="line"/>
    </contour>
  </outline>
</glyph>
<glyph name="b" format="2">
  <advance width="567"/>
  <unicode hex="0062"/>
  <anchor x="126" y="754" name="aboveLC"/>
  <outline>
    <contour>
      <point x="299" y="-12" type="curve" smooth="yes"/>
      <point x="415" y="-12"/>
      <point x="517" y="87"/>
      <point x="517" y="257" type="curve" smooth="yes"/>
      <point x="517" y="411"/>
      <point x="449" y="512"/>
      <point x="318" y="512" type="curve" smooth="yes"/>
      <point x="260" y="512"/>
      <point x="203" y="479"/>
      <point x="155" y="439" type="curve"/>
      <point x="158" y="531" type="line"/>
      <point x="158" y="739" type="line"/>
      <point x="88" y="739" type="line"/>
      <point x="88" y="0" type="line"/>
      <point x="144" y="0" type="line"/>
      <point x="151" y="51" type="line"/>
      <point x="154" y="51" type="line"/>
      <point x="199" y="11"/>
      <point x="252" y="-12"/>
    </contour>
    <contour>
      <point x="290" y="46" type="curve" smooth="yes"/>
      <point x="255" y="46"/>
      <point x="206" y="62"/>
      <point x="158" y="103" type="curve"/>
      <point x="158" y="379" type="line"/>
      <point x="209" y="427"/>
      <point x="258" y="453"/>
      <point x="303" y="453" type="curve" smooth="yes"/>
      <point x="405" y="453"/>
      <point x="445" y="372"/>
      <point x="445" y="256" type="curve" smooth="yes"/>
      <point x="445" y="128"/>
      <point x="380" y="46"/>
    </contour>
  </outline>
</glyph>
<glyph name="f" format="2">
  <advance width="289"/>
  <unicode hex="0066"/>
  <anchor x="223" y="764" name="aboveLC"/>
  <outline>
    <contour>
      <point x="100" y="0" type="line"/>
      <point x="169" y="0" type="line"/>
      <point x="169" y="590" type="line" smooth="yes"/>
      <point x="169" y="657"/>
      <point x="193" y="693"/>
      <point x="242" y="693" type="curve" smooth="yes"/>
      <point x="261" y="693"/>
      <point x="281" y="689"/>
      <point x="300" y="680" type="curve"/>
      <point x="316" y="734" type="line"/>
      <point x="293" y="744"/>
      <point x="265" y="751"/>
      <point x="237" y="751" type="curve" smooth="yes"/>
      <point x="145" y="751"/>
      <point x="100" y="692"/>
      <point x="100" y="591" type="curve" smooth="yes"/>
    </contour>
    <contour>
      <point x="31" y="442" type="line"/>
      <point x="279" y="442" type="line"/>
      <point x="279" y="499" type="line"/>
      <point x="102" y="499" type="line"/>
      <point x="31" y="495" type="line"/>
    </contour>
  </outline>
</glyph>
<glyph name="k" format="2">
  <advance width="498"/>
  <unicode hex="006B"/>
  <anchor x="126" y="754" name="aboveLC"/>
  <outline>
    <contour>
      <point x="88" y="0" type="line"/>
      <point x="157" y="0" type="line"/>
      <point x="157" y="133" type="line"/>
      <point x="258" y="251" type="line"/>
      <point x="411" y="0" type="line"/>
      <point x="488" y="0" type="line"/>
      <point x="298" y="300" type="line"/>
      <point x="464" y="499" type="line"/>
      <point x="386" y="499" type="line"/>
      <point x="159" y="220" type="line"/>
      <point x="157" y="220" type="line"/>
      <point x="157" y="739" type="line"/>
      <point x="88" y="739" type="line"/>
    </contour>
  </outline>
</glyph>
<glyph name="thorn" format="2">
  <advance width="568"/>
  <unicode hex="00FE"/>
  <anchor x="126" y="754" name="aboveLC"/>
  <outline>
    <contour>
      <point x="88" y="-217" type="line"/>
      <point x="158" y="-217" type="line"/>
      <point x="158" y="-42" type="line"/>
      <point x="157" y="45" type="line"/>
      <point x="204" y="8"/>
      <point x="251" y="-12"/>
      <point x="299" y="-12" type="curve" smooth="yes"/>
      <point x="415" y="-12"/>
      <point x="517" y="87"/>
      <point x="517" y="257" type="curve" smooth="yes"/>
      <point x="517" y="411"/>
      <point x="448" y="512"/>
      <point x="316" y="512" type="curve" smooth="yes"/>
      <point x="259" y="512"/>
      <point x="203" y="480"/>
      <point x="157" y="443" type="curve"/>
      <point x="158" y="533" type="line"/>
      <point x="158" y="739" type="line"/>
      <point x="88" y="739" type="line"/>
    </contour>
    <contour>
      <point x="290" y="46" type="curve" smooth="yes"/>
      <point x="255" y="46"/>
      <point x="207" y="62"/>
      <point x="158" y="103" type="curve"/>
      <point x="158" y="379" type="line"/>
      <point x="211" y="427"/>
      <point x="258" y="453"/>
      <point x="303" y="453" type="curve" smooth="yes"/>
      <point x="405" y="453"/>
      <point x="445" y="372"/>
      <point x="445" y="256" type="curve" smooth="yes"/>
      <point x="445" y="128"/>
      <point x="380" y="46"/>
    </contour>
  </outline>
</glyph>
<glyph name="idotless" format="2">
  <advance width="247"/>
  <unicode hex="0131"/>
  <anchor x="124" y="524" name="aboveLC"/>
  <outline>
    <contour>
      <point x="88" y="0" type="line"/>
      <point x="158" y="0" type="line"/>
      <point x="158" y="499" type="line"/>
      <point x="88" y="499" type="line"/>
    </contour>
  </outline>
</glyph>
<glyph name="greaterequal" format="2">
  <advance width="506"/>
  <unicode hex="2265"/>
  <outline>
    <contour>
      <point x="35" y="157" type="line"/>
      <point x="470" y="318" type="line"/>
      <point x="470" y="383" type="line"/>
      <point x="35" y="544" type="line"/>
      <point x="35" y="482" type="line"/>
      <point x="261" y="401" type="line"/>
      <point x="399" y="353" type="line"/>
      <point x="399" y="349" type="line"/>
      <point x="261" y="301" type="line"/>
      <point x="35" y="219" type="line"/>
    </contour>
    <contour>
      <point x="35" y="0" type="line"/>
      <point x="470" y="0" type="line"/>
      <point x="470" y="53" type="line"/>
      <point x="35" y="53" type="line"/>
    </contour>
  </outline>
</glyph>
<glyph name="Arkab-beria" format="2">
  <advance width="806"/>
  <unicode hex="16EA0"/>
  <anchor x="401" y="720" name="U"/>
  <outline>
    <contour>
      <point x="86" y="-68" type="line"/>
      <point x="195" y="-146" type="line"/>
      <point x="733" y="535" type="line"/>
      <point x="733" y="668" type="line"/>
      <point x="73" y="668" type="line"/>
      <point x="73" y="535" type="line"/>
      <point x="623" y="-146" type="line"/>
      <point x="729" y="-60" type="line"/>
      <point x="151" y="651" type="line"/>
      <point x="132" y="541" type="line"/>
      <point x="677" y="541" type="line"/>
      <point x="657" y="652" type="line"/>
    </contour>
  </outline>
</glyph>
<glyph name="Fitko-beria" format="2">
  <advance width="815"/>
  <unicode hex="16EA4"/>
  <outline>
    <contour>
      <point x="480" y="-136" type="curve" smooth="yes"/>
      <point x="697" y="-136" type="line"/>
      <point x="697" y="668" type="line"/>
      <point x="480" y="668" type="line" smooth="yes"/>
      <point x="249" y="668"/>
      <point x="66" y="607"/>
      <point x="66" y="265" type="curve" smooth="yes"/>
      <point x="66" y="-77"/>
      <point x="249" y="-136"/>
    </contour>
    <contour>
      <point x="206" y="265" type="curve" smooth="yes"/>
      <point x="206" y="483"/>
      <point x="289" y="541"/>
      <point x="455" y="541" type="curve" smooth="yes"/>
      <point x="560" y="541" type="line"/>
      <point x="560" y="-9" type="line"/>
      <point x="455" y="-9" type="line" smooth="yes"/>
      <point x="288" y="-9"/>
      <point x="206" y="48"/>
    </contour>
    <contour>
      <point x="335" y="205" type="line"/>
      <point x="448" y="205" type="line"/>
      <point x="448" y="326" type="line"/>
      <point x="335" y="326" type="line"/>
    </contour>
  </outline>
</glyph>
<glyph name="Goway-beria" format="2">
  <advance width="825"/>
  <unicode hex="16EA5"/>
  <outline>
    <contour>
      <point x="342" y="-136" type="line"/>
      <point x="479" y="-136" type="line"/>
      <point x="479" y="98" type="line"/>
      <point x="342" y="98" type="line"/>
    </contour>
    <contour>
      <point x="723" y="-61" type="curve"/>
      <point x="765" y="71" type="line"/>
      <point x="501" y="115"/>
      <point x="211" y="292"/>
      <point x="211" y="427" type="curve" smooth="yes"/>
      <point x="211" y="493"/>
      <point x="275" y="558"/>
      <point x="410" y="558" type="curve" smooth="yes"/>
      <point x="545" y="558"/>
      <point x="609" y="493"/>
      <point x="609" y="427" type="curve" smooth="yes"/>
      <point x="609" y="293"/>
      <point x="321" y="115"/>
      <point x="58" y="71" type="curve"/>
      <point x="100" y="-61" type="line"/>
      <point x="367" y="1"/>
      <point x="749" y="189"/>
      <point x="749" y="422" type="curve" smooth="yes"/>
      <point x="749" y="576"/>
      <point x="609" y="685"/>
      <point x="410" y="685" type="curve" smooth="yes"/>
      <point x="211" y="685"/>
      <point x="71" y="576"/>
      <point x="71" y="422" type="curve" smooth="yes"/>
      <point x="71" y="192"/>
      <point x="450" y="2"/>
    </contour>
  </outline>
</glyph>
<glyph name="Meri-beria" format="2">
  <advance width="838"/>
  <unicode hex="16EAB"/>
  <outline>
    <contour>
      <point x="172" y="-152" type="line"/>
      <point x="192" y="-29"/>
      <point x="244" y="179"/>
      <point x="388" y="332" type="curve" smooth="yes"/>
      <point x="491" y="442"/>
      <point x="611" y="509"/>
      <point x="752" y="563" type="curve"/>
      <point x="688" y="684" type="line"/>
      <point x="543" y="628"/>
      <point x="406" y="550"/>
      <point x="288" y="426" type="curve" smooth="yes"/>
      <point x="105" y="233"/>
      <point x="53" y="-34"/>
      <point x="38" y="-132" type="curve"/>
    </contour>
    <contour>
      <point x="617" y="142" type="line"/>
      <point x="731" y="218" type="line"/>
      <point x="526" y="549" type="line"/>
      <point x="412" y="473" type="line"/>
    </contour>
  </outline>
</glyph>
<glyph name="Ngay-beria" format="2">
  <advance width="832"/>
  <unicode hex="16EAE"/>
  <outline>
    <contour>
      <point x="303" y="559" type="line"/>
      <point x="555" y="-136" type="line"/>
      <point x="798" y="-136" type="line"/>
      <point x="798" y="-9" type="line"/>
      <point x="584" y="-9" type="line"/>
      <point x="689" y="-114" type="line"/>
      <point x="414" y="646" type="line"/>
      <point x="339" y="541" type="line"/>
      <point x="694" y="541" type="line"/>
      <point x="694" y="668" type="line"/>
      <point x="299" y="668" type="line"/>
      <point x="52" y="-18" type="line"/>
      <point x="52" y="-136" type="line"/>
      <point x="332" y="-136" type="line"/>
      <point x="332" y="-9" type="line"/>
      <point x="86" y="-9" type="line"/>
      <point x="162" y="-115" type="line"/>
      <point x="404" y="559" type="line"/>
    </contour>
  </outline>
</glyph>
<glyph name="Oi-beria" format="2">
  <advance width="865"/>
  <unicode hex="16EAF"/>
  <anchor x="478" y="720" name="U"/>
  <outline>
    <contour>
      <point x="6" y="-9" type="line"/>
      <point x="6" y="-136" type="line"/>
      <point x="264" y="-136" type="line"/>
      <point x="512" y="425" type="line"/>
      <point x="447" y="425" type="line"/>
      <point x="689" y="-115" type="line"/>
      <point x="758" y="-9" type="line"/>
      <point x="492" y="-9" type="line"/>
      <point x="492" y="-136" type="line"/>
      <point x="792" y="-136" type="line"/>
      <point x="792" y="-16" type="line"/>
      <point x="569" y="480" type="line"/>
      <point x="569" y="485" type="line"/>
      <point x="778" y="485" type="line"/>
      <point x="778" y="612" type="line"/>
      <point x="547" y="612" type="line"/>
      <point x="547" y="685" type="line"/>
      <point x="410" y="685" type="line"/>
      <point x="410" y="612" type="line"/>
      <point x="184" y="612" type="line"/>
      <point x="184" y="485" type="line"/>
      <point x="387" y="485" type="line"/>
      <point x="387" y="478" type="line"/>
      <point x="125" y="-114" type="line"/>
      <point x="229" y="-9" type="line"/>
    </contour>
  </outline>
</glyph>
<glyph name="Wasse-beria" format="2">
  <advance width="929"/>
  <unicode hex="16EB7"/>
  <outline>
    <contour>
      <point x="795" y="-9" type="line"/>
      <point x="131" y="-9" type="line"/>
      <point x="131" y="-136" type="line"/>
      <point x="795" y="-136" type="line"/>
    </contour>
    <contour>
      <point x="288" y="-101" type="line"/>
      <point x="430" y="-101" type="line"/>
      <point x="155" y="673" type="line"/>
      <point x="32" y="614" type="line"/>
    </contour>
    <contour>
      <point x="530" y="-104" type="line"/>
      <point x="530" y="674" type="line"/>
      <point x="398" y="674" type="line"/>
      <point x="398" y="-104" type="line"/>
    </contour>
    <contour>
      <point x="500" y="-96" type="line"/>
      <point x="640" y="-96" type="line"/>
      <point x="896" y="617" type="line"/>
      <point x="774" y="673" type="line"/>
    </contour>
  </outline>
</glyph>
<glyph name="basigna-beria" format="2">
  <advance width="634"/>
  <unicode hex="16EBC"/>
  <outline>
    <contour>
      <point x="398" y="361" type="line"/>
      <point x="398" y="0" type="line"/>
      <point x="532" y="0" type="line"/>
      <point x="532" y="668" type="line"/>
      <point x="215" y="668" type="line"/>
      <point x="215" y="543" type="line"/>
      <point x="463" y="543" type="line"/>
      <point x="398" y="653" type="line"/>
      <point x="398" y="331" type="line"/>
      <point x="463" y="408" type="line"/>
      <point x="255" y="408" type="line" smooth="yes"/>
      <point x="133" y="408"/>
      <point x="82" y="328"/>
      <point x="82" y="224" type="curve" smooth="yes"/>
      <point x="82" y="0" type="line"/>
      <point x="216" y="0" type="line"/>
      <point x="216" y="205" type="line" smooth="yes"/>
      <point x="216" y="259"/>
      <point x="229" y="283"/>
      <point x="279" y="283" type="curve" smooth="yes"/>
      <point x="463" y="283" type="line"/>
    </contour>
  </outline>
</glyph>
<glyph name="fitko-beria" format="2">
  <advance width="628"/>
  <unicode hex="16EBF"/>
  <outline>
    <contour>
      <point x="73" y="125" type="line"/>
      <point x="73" y="0" type="line"/>
      <point x="266" y="0" type="line" smooth="yes"/>
      <point x="432" y="0"/>
      <point x="548" y="71"/>
      <point x="548" y="334" type="curve" smooth="yes"/>
      <point x="548" y="597"/>
      <point x="432" y="668"/>
      <point x="266" y="668" type="curve" smooth="yes"/>
      <point x="73" y="668" type="line"/>
      <point x="73" y="543" type="line"/>
      <point x="280" y="543" type="line" smooth="yes"/>
      <point x="360" y="543"/>
      <point x="412" y="501"/>
      <point x="412" y="334" type="curve" smooth="yes"/>
      <point x="412" y="167"/>
      <point x="360" y="125"/>
      <point x="280" y="125" type="curve" smooth="yes"/>
    </contour>
  </outline>
</glyph>
<glyph name="nini-beria" format="2">
  <advance width="723"/>
  <unicode hex="16EC7"/>
  <outline>
    <contour>
      <point x="360" y="417" type="curve" smooth="yes"/>
      <point x="157" y="417"/>
      <point x="58" y="299"/>
      <point x="58" y="194" type="curve" smooth="yes"/>
      <point x="58" y="83"/>
      <point x="142" y="-27"/>
      <point x="360" y="-27" type="curve" smooth="yes"/>
      <point x="555" y="-27"/>
      <point x="665" y="83"/>
      <point x="665" y="197" type="curve" smooth="yes"/>
      <point x="665" y="300"/>
      <point x="568" y="417"/>
    </contour>
    <contour>
      <point x="360" y="292" type="curve" smooth="yes"/>
      <point x="484" y="292"/>
      <point x="529" y="244"/>
      <point x="529" y="197" type="curve" smooth="yes"/>
      <point x="529" y="142"/>
      <point x="482" y="98"/>
      <point x="360" y="98" type="curve" smooth="yes"/>
      <point x="240" y="98"/>
      <point x="194" y="142"/>
      <point x="194" y="194" type="curve" smooth="yes"/>
      <point x="194" y="244"/>
      <point x="237" y="292"/>
    </contour>
    <contour>
      <point x="585" y="543" type="line"/>
      <point x="585" y="668" type="line"/>
      <point x="136" y="668" type="line"/>
      <point x="136" y="543" type="line"/>
      <point x="339" y="543" type="line"/>
      <point x="294" y="588" type="line"/>
      <point x="294" y="24" type="line"/>
      <point x="428" y="24" type="line"/>
      <point x="428" y="588" type="line"/>
      <point x="383" y="543" type="line"/>
    </contour>
  </outline>
</glyph>
<glyph name="gna-beria" format="2">
  <advance width="720"/>
  <unicode hex="16EC8"/>
  <outline>
    <contour>
      <point x="101" y="0" type="line"/>
      <point x="235" y="0" type="line"/>
      <point x="235" y="403" type="line"/>
      <point x="160" y="321" type="line"/>
      <point x="328" y="321" type="line" smooth="yes"/>
      <point x="468" y="321"/>
      <point x="530" y="275"/>
      <point x="530" y="218" type="curve" smooth="yes"/>
      <point x="530" y="152" type="line" smooth="yes"/>
      <point x="530" y="128"/>
      <point x="525" y="120"/>
      <point x="505" y="120" type="curve" smooth="yes"/>
      <point x="467" y="120" type="line" smooth="yes"/>
      <point x="447" y="120"/>
      <point x="442" y="128"/>
      <point x="442" y="152" type="curve" smooth="yes"/>
      <point x="442" y="230" type="line"/>
      <point x="308" y="230" type="line"/>
      <point x="308" y="130" type="line" smooth="yes"/>
      <point x="308" y="47"/>
      <point x="355" y="-5"/>
      <point x="456" y="-5" type="curve" smooth="yes"/>
      <point x="516" y="-5" type="line" smooth="yes"/>
      <point x="617" y="-5"/>
      <point x="664" y="49"/>
      <point x="664" y="150" type="curve" smooth="yes"/>
      <point x="664" y="220" type="line" smooth="yes"/>
      <point x="664" y="346"/>
      <point x="549" y="428"/>
      <point x="399" y="439" type="curve"/>
      <point x="414" y="394" type="line"/>
      <point x="461" y="416"/>
      <point x="503" y="456"/>
      <point x="503" y="520" type="curve" smooth="yes"/>
      <point x="503" y="613"/>
      <point x="417" y="668"/>
      <point x="317" y="668" type="curve" smooth="yes"/>
      <point x="101" y="668" type="line"/>
    </contour>
    <contour>
      <point x="304" y="446" type="curve" smooth="yes"/>
      <point x="160" y="446" type="line"/>
      <point x="235" y="381" type="line"/>
      <point x="235" y="643" type="line"/>
      <point x="160" y="543" type="line"/>
      <point x="301" y="543" type="line" smooth="yes"/>
      <point x="349" y="543"/>
      <point x="374" y="529"/>
      <point x="374" y="500" type="curve" smooth="yes"/>
      <point x="374" y="465"/>
      <point x="339" y="446"/>
    </contour>
  </outline>
</glyph>
<glyph name="pi-beria" format="2">
  <advance width="690"/>
  <unicode hex="16ECB"/>
  <outline>
    <contour>
      <point x="82" y="224" type="curve" smooth="yes"/>
      <point x="82" y="0" type="line"/>
      <point x="662" y="0" type="line"/>
      <point x="662" y="125" type="line"/>
      <point x="491" y="125" type="line"/>
      <point x="532" y="45" type="line"/>
      <point x="532" y="668" type="line"/>
      <point x="194" y="668" type="line"/>
      <point x="194" y="543" type="line"/>
      <point x="463" y="543" type="line"/>
      <point x="398" y="653" type="line"/>
      <point x="398" y="332" type="line"/>
      <point x="463" y="408" type="line"/>
      <point x="255" y="408" type="line" smooth="yes"/>
      <point x="133" y="408"/>
      <point x="82" y="328"/>
    </contour>
    <contour>
      <point x="447" y="125" type="line"/>
      <point x="151" y="125" type="line"/>
      <point x="216" y="45" type="line"/>
      <point x="216" y="205" type="line" smooth="yes"/>
      <point x="216" y="259"/>
      <point x="229" y="283"/>
      <point x="279" y="283" type="curve" smooth="yes"/>
      <point x="463" y="283" type="line"/>
      <point x="398" y="362" type="line"/>
      <point x="398" y="45" type="line"/>
    </contour>
  </outline>
</glyph>
<glyph name="erigo-beria" format="2">
  <advance width="858"/>
  <unicode hex="16ECC"/>
  <outline>
    <contour>
      <point x="363" y="125" type="line"/>
      <point x="235" y="125" type="line"/>
      <point x="235" y="668" type="line"/>
      <point x="101" y="668" type="line"/>
      <point x="101" y="0" type="line"/>
      <point x="757" y="0" type="line"/>
      <point x="757" y="668" type="line"/>
      <point x="623" y="668" type="line"/>
      <point x="623" y="125" type="line"/>
      <point x="495" y="125" type="line"/>
      <point x="495" y="668" type="line"/>
      <point x="363" y="668" type="line"/>
    </contour>
  </outline>
</glyph>
<glyph name="seri-beria" format="2">
  <advance width="621"/>
  <unicode hex="16ECE"/>
  <outline>
    <contour>
      <point x="49" y="0" type="line"/>
      <point x="230" y="0" type="line" smooth="yes"/>
      <point x="354" y="0"/>
      <point x="423" y="69"/>
      <point x="423" y="187" type="curve" smooth="yes"/>
      <point x="423" y="653" type="line"/>
      <point x="343" y="543" type="line"/>
      <point x="557" y="543" type="line"/>
      <point x="557" y="668" type="line"/>
      <point x="155" y="668" type="line"/>
      <point x="155" y="543" type="line"/>
      <point x="369" y="543" type="line"/>
      <point x="289" y="653" type="line"/>
      <point x="289" y="201" type="line" smooth="yes"/>
      <point x="289" y="150"/>
      <point x="264" y="125"/>
      <point x="216" y="125" type="curve" smooth="yes"/>
      <point x="49" y="125" type="line"/>
    </contour>
    <contour>
      <point x="175" y="320" type="line"/>
      <point x="537" y="320" type="line"/>
      <point x="537" y="445" type="line"/>
      <point x="175" y="445" type="line"/>
    </contour>
  </outline>
</glyph>
<glyph name="shep-beria" format="2">
  <advance width="636"/>
  <unicode hex="16ECF"/>
  <outline>
    <contour>
      <point x="51" y="0" type="line"/>
      <point x="232" y="0" type="line" smooth="yes"/>
      <point x="356" y="0"/>
      <point x="425" y="69"/>
      <point x="425" y="187" type="curve" smooth="yes"/>
      <point x="425" y="653" type="line"/>
      <point x="345" y="543" type="line"/>
      <point x="569" y="543" type="line"/>
      <point x="569" y="668" type="line"/>
      <point x="147" y="668" type="line"/>
      <point x="147" y="543" type="line"/>
      <point x="371" y="543" type="line"/>
      <point x="291" y="653" type="line"/>
      <point x="291" y="201" type="line" smooth="yes"/>
      <point x="291" y="150"/>
      <point x="266" y="125"/>
      <point x="218" y="125" type="curve" smooth="yes"/>
      <point x="51" y="125" type="line"/>
    </contour>
    <contour>
      <point x="175" y="373" type="line"/>
      <point x="537" y="373" type="line"/>
      <point x="537" y="493" type="line"/>
      <point x="175" y="493" type="line"/>
    </contour>
    <contour>
      <point x="175" y="209" type="line"/>
      <point x="537" y="209" type="line"/>
      <point x="537" y="329" type="line"/>
      <point x="175" y="329" type="line"/>
    </contour>
  </outline>
</glyph>
<glyph name="_caroncomb.cap" format="2">
  <anchor x="0" y="702" name="_aboveUC"/>
  <outline>
    <contour>
      <point x="-36" y="730" type="line"/>
      <point x="36" y="730" type="line"/>
      <point x="147" y="847" type="line"/>
      <point x="116" y="871" type="line"/>
      <point x="2" y="773" type="line"/>
      <point x="-2" y="773" type="line"/>
      <point x="-116" y="871" type="line"/>
      <point x="-147" y="847" type="line"/>
    </contour>
  </outline>
</glyph>
<glyph name="_caroncomb" format="2">
  <anchor x="0" y="524" name="_aboveLC"/>
  <outline>
    <contour>
      <point x="-34" y="592" type="line"/>
      <point x="34" y="592" type="line"/>
      <point x="153" y="738" type="line"/>
      <point x="122" y="767" type="line"/>
      <point x="2" y="645" type="line"/>
      <point x="-2" y="645" type="line"/>
      <point x="-122" y="767" type="line"/>
      <point x="-153" y="738" type="line"/>
    </contour>
  </outline>
</glyph>
<glyph name="_gravecomb" format="2">
  <anchor x="0" y="524" name="_aboveLC"/>
  <outline>
    <contour>
      <point x="20" y="592" type="line"/>
      <point x="56" y="627" type="line"/>
      <point x="-86" y="795" type="line"/>
      <point x="-136" y="749" type="line"/>
    </contour>
  </outline>
</glyph>
<glyph name="_tildecomb.cap" format="2">
  <anchor x="0" y="702" name="_aboveUC"/>
  <outline>
    <contour>
      <point x="78" y="736" type="curve" smooth="yes"/>
      <point x="137" y="736"/>
      <point x="174" y="785"/>
      <point x="177" y="858" type="curve"/>
      <point x="129" y="861" type="line"/>
      <point x="124" y="816"/>
      <point x="104" y="789"/>
      <point x="76" y="789" type="curve" smooth="yes"/>
      <point x="24" y="789"/>
      <point x="0" y="866"/>
      <point x="-78" y="866" type="curve" smooth="yes"/>
      <point x="-137" y="866"/>
      <point x="-174" y="817"/>
      <point x="-177" y="744" type="curve"/>
      <point x="-129" y="740" type="line"/>
      <point x="-125" y="786"/>
      <point x="-104" y="813"/>
      <point x="-76" y="813" type="curve" smooth="yes"/>
      <point x="-24" y="813"/>
      <point x="0" y="736"/>
    </contour>
  </outline>
</glyph>
